# xmcd CD database file
#
# Track frame offsets:
#	150
#	24115
#	40797
#	61090
#	74662
#	102902
#	120497
#	149312
#	178885
#	200560
#	224217
#	247212
#	268400
#
# Disc length: 3775 seconds
#
# Revision: 0
# Processed by: cddbd v1.5.1PL0 Copyright (c) Steve Scherf et al.
# Submitted via: CDex 1.51
#
DISCID=d10ebd0d
DTITLE=Norm Bellas - Out of the Norm
DYEAR=1994
DGENRE=Jazz
TTITLE0=One for Lynn
TTITLE1=What It Isn't
TTITLE2=Rico
TTITLE3=Flourish of Flamenco
TTITLE4=Picture of Dorian Blue
TTITLE5=Darryl Nefferby and Arthur Hugh
TTITLE6=Islope
TTITLE7=Great Dane
TTITLE8=I'll Take Manhasset
TTITLE9=Blue Stew
TTITLE10=Waltz of the Wild Flowers
TTITLE11=Free Lunch
TTITLE12=Party Size Fun Bags
EXTD=YEAR: 1994
EXTT0=
EXTT1=
EXTT2=
EXTT3=
EXTT4=
EXTT5=
EXTT6=
EXTT7=
EXTT8=
EXTT9=
EXTT10=
EXTT11=
EXTT12=
PLAYORDER=
